<?xml version="1.0" encoding="utf-8"?>
<!-- Custom combination in the style of teenyicons (MIT license) -->
<svg viewBox="0 0 15 15" fill="none" xmlns="http://www.w3.org/2000/svg">
  <!-- Half fill (left side) -->
  <path
    d="M7.94838 0.778719C7.86415 0.60805 7.69034 0.5 7.50001 0.5C7.30969 0.5 7.13587 0.60805 7.05165 0.778719L5.00476 4.92621L0.42816 5.59081C0.239806 5.61816 0.0833166 5.75008 0.0244934 5.93109C-0.0343298 6.1121 0.0147161 6.31081 0.151008 6.44366L3.46277 9.67185L2.68076 14.2306C2.64858 14.4182 2.72569 14.6078 2.87966 14.7196C3.03364 14.8315 3.23778 14.8463 3.40624 14.7577L7.50001 12.6054V0.5Z"
    fill="currentColor"
  />
  <!-- Outline of full star -->
  <path
    d="M7.5 12.0405L3.17354 14.3151L4 9.4973L0.5 6.08562L5.33677 5.38324L7.5 1L9.66323 5.38324L14.5 6.08562L11 9.4973L11.8265 14.3151L7.5 12.0405Z"
    stroke="currentColor"
    stroke-linecap="round"
    stroke-linejoin="round"
  />
</svg>